<?xml version="1.0" encoding="UTF-8" standalone="no"?>
<svg width="48px" height="48px" viewBox="0 0 48 48" version="1.1" xmlns="http://www.w3.org/2000/svg" xmlns:xlink="http://www.w3.org/1999/xlink">
    <defs></defs>
    <g id="Social-Media" stroke="none" stroke-width="1" fill="none" fill-rule="evenodd">
        <g id="Social-Media-Icons" transform="translate(2.000000, 2.000000)">
            <g id="codepen-copy">
                <rect id="Rectangle" x="0" y="0" width="44" height="44"></rect>
                <circle id="Oval" stroke="currentColor" stroke-width="4" cx="22" cy="22" r="22"></circle>
                <path d="M27.2730015,20.759256 L22.9880683,17.7689622 L22.9880683,12.9583772 L30.7321698,18.3452369 L27.2730015,20.759256 Z M29.0505952,22.0000404 L31.5235537,20.2741251 L31.5235537,23.7256325 L29.0505952,22.0000404 Z M22.9880683,26.2311186 L27.2730015,23.2408248 L30.7321698,25.6548439 L22.9880683,31.0417036 L22.9880683,26.2311186 Z M16.7266888,23.2408248 L21.011622,26.2311186 L21.011622,31.0417036 L13.2678302,25.6548439 L16.7266888,23.2408248 Z M14.949095,22.0000404 L12.4764463,23.7256325 L12.4764463,20.2741251 L14.949095,22.0000404 Z M21.011622,17.7689622 L16.7266888,20.759256 L13.2678302,18.3452369 L21.011622,12.9583772 L21.011622,17.7689622 Z M22,24.4395926 L18.5042825,22.0000404 L22,19.560165 L25.4957175,22.0000404 L22,24.4395926 Z M33.4832741,18.1645653 C33.4780085,18.1351536 33.4733624,18.1063884 33.4659287,18.0779463 C33.4612826,18.0608164 33.4557073,18.0446562 33.4504417,18.0278495 C33.4426982,18.0026395 33.4349548,17.9774295 33.4250431,17.9525427 C33.4182288,17.935736 33.4104853,17.9189294 33.4030516,17.9024459 C33.3925205,17.8791752 33.3816796,17.8562276 33.36929,17.8339264 C33.3603076,17.817443 33.3507057,17.8019291 33.3411037,17.7860921 C33.327785,17.7647605 33.3141564,17.7437522 33.2992889,17.7233903 C33.2884481,17.7085229 33.2772975,17.6936554 33.2655274,17.6791112 C33.2500404,17.6597189 33.2333145,17.6412962 33.2162788,17.6231967 C33.2032698,17.6092989 33.1902607,17.5957243 33.1769419,17.5827961 C33.1589771,17.5659894 33.140083,17.5498291 33.1208791,17.5339921 C33.1060116,17.5220335 33.0914539,17.5097517 33.0759669,17.4987627 C33.0707014,17.4945611 33.0654358,17.489713 33.0598605,17.4858345 L22.5479288,10.1733187 C22.216198,9.94222709 21.7834922,9.94222709 21.4517615,10.1733187 L10.9401395,17.4858345 C10.9342545,17.489713 10.9292986,17.4945611 10.9237233,17.4987627 C10.9082364,17.5097517 10.8936786,17.5220335 10.8788111,17.5339921 C10.859917,17.5498291 10.8407132,17.5659894 10.8230581,17.5827961 C10.8094295,17.5957243 10.7964205,17.6092989 10.7837212,17.6231967 C10.7663758,17.6412962 10.7499596,17.6597189 10.7341629,17.6791112 C10.7223928,17.6936554 10.7112422,17.7085229 10.7004013,17.7233903 C10.6855338,17.7437522 10.6719053,17.7647605 10.6585865,17.7860921 C10.6489846,17.8019291 10.6393827,17.817443 10.63071,17.8339264 C10.6180107,17.8562276 10.6071698,17.8791752 10.5969484,17.9024459 C10.5895147,17.9189294 10.5814614,17.935736 10.5749569,17.9525427 C10.565355,17.9774295 10.556992,18.0026395 10.5492485,18.0278495 C10.543983,18.0446562 10.5384077,18.0608164 10.5340713,18.0779463 C10.5269473,18.1063884 10.5216817,18.1351536 10.5167259,18.1645653 C10.514248,18.1794327 10.5108409,18.1939769 10.5086727,18.2088444 C10.5030974,18.2534467 10.5,18.2983722 10.5,18.3436209 L10.5,25.6561367 C10.5,25.7017086 10.5030974,25.7463109 10.5086727,25.7909132 C10.5108409,25.8061039 10.514248,25.8206481 10.5167259,25.8355155 C10.5216817,25.8642808 10.5269473,25.8933692 10.5340713,25.9218113 C10.5384077,25.9389412 10.543983,25.9554246 10.5492485,25.9719081 C10.556992,25.9974413 10.565355,26.0226513 10.5749569,26.0475381 C10.5814614,26.064668 10.5895147,26.0808282 10.5969484,26.0973117 C10.6071698,26.1205824 10.6180107,26.14353 10.63071,26.1661544 C10.6393827,26.1823146 10.6489846,26.1981517 10.6585865,26.2133423 C10.6719053,26.2349971 10.6855338,26.2556822 10.7004013,26.2763673 C10.7112422,26.2918812 10.7223928,26.3064254 10.7341629,26.3209696 C10.7499596,26.3400387 10.7663758,26.3587846 10.7837212,26.3765609 C10.7964205,26.3901355 10.8094295,26.4040333 10.8230581,26.4166383 C10.8407132,26.4337682 10.859917,26.4502517 10.8788111,26.4660887 C10.8936786,26.4780473 10.9082364,26.4900059 10.9237233,26.5013181 C10.9292986,26.5055197 10.9342545,26.5100446 10.9401395,26.5139231 L21.4517615,33.8264389 C21.6177817,33.9421463 21.8085811,34 22,34 C22.1911091,34 22.3822183,33.9421463 22.5479288,33.8264389 L33.0598605,26.5139231 C33.0654358,26.5100446 33.0707014,26.5055197 33.0759669,26.5013181 C33.0914539,26.4900059 33.1060116,26.4780473 33.1208791,26.4660887 C33.140083,26.4502517 33.1589771,26.4337682 33.1769419,26.4166383 C33.1902607,26.4040333 33.2032698,26.3901355 33.2162788,26.3765609 C33.2333145,26.3587846 33.2500404,26.3400387 33.2655274,26.3209696 C33.2772975,26.3064254 33.2884481,26.2918812 33.2992889,26.2763673 C33.3141564,26.2556822 33.327785,26.2349971 33.3411037,26.2133423 C33.3507057,26.1981517 33.3603076,26.1823146 33.36929,26.1661544 C33.3816796,26.14353 33.3925205,26.1205824 33.4030516,26.0973117 C33.4104853,26.0808282 33.4182288,26.064668 33.4250431,26.0475381 C33.4349548,26.0226513 33.4426982,25.9974413 33.4504417,25.9719081 C33.4557073,25.9554246 33.4612826,25.9389412 33.4659287,25.9218113 C33.4733624,25.8933692 33.4780085,25.8642808 33.4832741,25.8355155 C33.485752,25.8206481 33.4891591,25.8061039 33.4910176,25.7909132 C33.4965929,25.7463109 33.5,25.7017086 33.5,25.6561367 L33.5,18.3436209 C33.5,18.2983722 33.4965929,18.2534467 33.4910176,18.2088444 C33.4891591,18.1939769 33.485752,18.1794327 33.4832741,18.1645653 L33.4832741,18.1645653 Z" id="Shape" fill="currentColor"></path>
            </g>
        </g>
    </g>
</svg>