<?xml version="1.0" encoding="UTF-8"?><!DOCTYPE svg PUBLIC "-//W3C//DTD SVG 1.1//EN" "http://www.w3.org/Graphics/SVG/1.1/DTD/svg11.dtd"><svg xmlns="http://www.w3.org/2000/svg"><symbol id="codepen copy" viewBox="0 0 48 48"><g transform="translate(2 2)" fill="none" fill-rule="evenodd"><path d="M0 0h44v44H0z"/><circle stroke="#000" stroke-width="4" cx="22" cy="22" r="22"/><path d="M27.273 20.76l-4.285-2.99v-4.812l7.744 5.387-3.46 2.414zM29.05 22l2.474-1.726v3.452L29.05 22zm-6.062 4.23l4.285-2.99 3.46 2.415-7.745 5.387v-4.81zm-6.26-2.99l4.284 2.99v4.812l-7.744-5.387 3.46-2.414zM14.947 22l-2.472 1.726v-3.452L14.95 22zm6.064-4.23l-4.285 2.99-3.46-2.415 7.745-5.387v4.81zM22 24.44L18.504 22 22 19.56 25.496 22 22 24.44zm11.483-6.275c-.005-.03-.01-.06-.017-.087l-.016-.05c-.007-.025-.015-.05-.025-.075l-.022-.05c-.01-.024-.02-.047-.034-.07l-.03-.047-.04-.063-.034-.044c-.016-.02-.033-.04-.05-.057l-.04-.04c-.017-.017-.036-.033-.055-.05l-.044-.034-.016-.014-10.512-7.313c-.332-.23-.765-.23-1.096 0L10.94 17.486c-.006.004-.01.01-.016.013-.016.01-.03.022-.045.034-.02.016-.04.032-.057.05-.014.012-.027.025-.04.04-.017.017-.033.036-.05.055l-.033.043c-.014.02-.028.042-.04.063-.01.016-.02.03-.03.048-.012.022-.023.045-.033.068l-.022.05c-.01.025-.018.05-.026.076-.006.017-.012.033-.016.05-.007.028-.012.057-.017.087l-.008.044c-.007.043-.01.088-.01.134v7.312c0 .046.003.09.01.135 0 .016.004.03.007.046.005.028.01.057.017.086.004.017.01.033.015.05.007.025.015.05.025.076.006.017.015.033.022.05.01.023.02.046.034.068l.03.047c.012.022.026.043.04.063.01.016.022.03.034.045.016.02.032.04.05.057.012.013.025.027.04.04.017.017.036.033.055.05.014.01.028.023.044.034.005.006.01.01.016.014l10.512 7.312c.166.116.357.174.548.174.19 0 .382-.058.548-.174l10.512-7.312.016-.013c.015-.01.03-.022.045-.034.02-.016.04-.032.057-.05l.04-.04.05-.055.032-.044c.014-.02.028-.04.04-.063l.03-.047c.012-.022.023-.045.033-.07.007-.015.015-.03.022-.048.01-.025.018-.05.025-.076l.016-.05c.007-.03.012-.058.017-.086l.008-.045c.007-.044.01-.088.01-.134v-7.312c0-.046-.003-.09-.01-.135 0-.016-.004-.03-.007-.045z" fill="#000"/></g></symbol><symbol id="codepen" viewBox="0 0 48 48"><g transform="translate(2 2)" fill="none" fill-rule="evenodd"><path d="M0 0h44v44H0z"/><circle stroke="#000" stroke-width="4" cx="22" cy="22" r="22"/><path d="M27.273 20.76l-4.285-2.99v-4.812l7.744 5.387-3.46 2.414zM29.05 22l2.474-1.726v3.452L29.05 22zm-6.062 4.23l4.285-2.99 3.46 2.415-7.745 5.387v-4.81zm-6.26-2.99l4.284 2.99v4.812l-7.744-5.387 3.46-2.414zM14.947 22l-2.472 1.726v-3.452L14.95 22zm6.064-4.23l-4.285 2.99-3.46-2.415 7.745-5.387v4.81zM22 24.44L18.504 22 22 19.56 25.496 22 22 24.44zm11.483-6.275c-.005-.03-.01-.06-.017-.087l-.016-.05c-.007-.025-.015-.05-.025-.075l-.022-.05c-.01-.024-.02-.047-.034-.07l-.03-.047-.04-.063-.034-.044c-.016-.02-.033-.04-.05-.057l-.04-.04c-.017-.017-.036-.033-.055-.05l-.044-.034-.016-.014-10.512-7.313c-.332-.23-.765-.23-1.096 0L10.94 17.486c-.006.004-.01.01-.016.013-.016.01-.03.022-.045.034-.02.016-.04.032-.057.05-.014.012-.027.025-.04.04-.017.017-.033.036-.05.055l-.033.043c-.014.02-.028.042-.04.063-.01.016-.02.03-.03.048-.012.022-.023.045-.033.068l-.022.05c-.01.025-.018.05-.026.076-.006.017-.012.033-.016.05-.007.028-.012.057-.017.087l-.008.044c-.007.043-.01.088-.01.134v7.312c0 .046.003.09.01.135 0 .016.004.03.007.046.005.028.01.057.017.086.004.017.01.033.015.05.007.025.015.05.025.076.006.017.015.033.022.05.01.023.02.046.034.068l.03.047c.012.022.026.043.04.063.01.016.022.03.034.045.016.02.032.04.05.057.012.013.025.027.04.04.017.017.036.033.055.05.014.01.028.023.044.034.005.006.01.01.016.014l10.512 7.312c.166.116.357.174.548.174.19 0 .382-.058.548-.174l10.512-7.312.016-.013c.015-.01.03-.022.045-.034.02-.016.04-.032.057-.05l.04-.04.05-.055.032-.044c.014-.02.028-.04.04-.063l.03-.047c.012-.022.023-.045.033-.07.007-.015.015-.03.022-.048.01-.025.018-.05.025-.076l.016-.05c.007-.03.012-.058.017-.086l.008-.045c.007-.044.01-.088.01-.134v-7.312c0-.046-.003-.09-.01-.135 0-.016-.004-.03-.007-.045z" fill="#000"/></g></symbol><symbol id="github" viewBox="0 0 48 48"><g transform="translate(2 2)" fill="none" fill-rule="evenodd"><path d="M0 0h44v44H0z"/><circle stroke="#000" stroke-width="4" cx="22" cy="22" r="22"/><path d="M10 22.304c0 5.436 3.438 10.048 8.207 11.675.6.112.82-.268.82-.594 0-.292-.012-1.066-.018-2.092-3.338.743-4.043-1.65-4.043-1.65-.546-1.422-1.332-1.8-1.332-1.8-1.09-.764.082-.748.082-.748 1.205.087 1.838 1.268 1.838 1.268 1.07 1.88 2.81 1.337 3.493 1.022.11-.795.42-1.336.762-1.645-2.665-.31-5.467-1.364-5.467-6.08 0-1.343.468-2.44 1.236-3.3-.124-.313-.536-1.563.117-3.257 0 0 1.007-.332 3.3 1.26.957-.272 1.983-.41 3.003-.413 1.02.004 2.046.14 3.005.414 2.29-1.593 3.297-1.26 3.297-1.26.654 1.693.242 2.943.12 3.255.768.86 1.232 1.957 1.232 3.3 0 4.727-2.805 5.767-5.478 6.072.43.38.814 1.13.814 2.278 0 1.646-.014 2.973-.014 3.376 0 .33.216.712.825.59 4.765-1.63 8.2-6.237 8.2-11.672C34 15.51 28.627 10 22 10s-12 5.51-12 12.304z" fill="#000"/></g></symbol><symbol id="linkedin" viewBox="0 0 48 48"><g transform="translate(2 2)" fill="none" fill-rule="evenodd"><path d="M0 0h44v44H0z"/><circle stroke="#000" stroke-width="4" cx="22" cy="22" r="22"/><path d="M12.504 18.413h3.9V32h-3.9V18.412zm1.85-1.7h-.028c-1.41 0-2.326-1.038-2.326-2.353 0-1.342.942-2.36 2.38-2.36 1.44 0 2.324 1.015 2.352 2.356 0 1.315-.913 2.358-2.378 2.358zM32 32h-4.42v-7.032c0-1.84-.692-3.095-2.212-3.095-1.163 0-1.81.847-2.11 1.665-.114.292-.096.7-.096 1.11V32h-4.38s.057-12.455 0-13.587h4.38v2.132c.26-.932 1.658-2.263 3.89-2.263 2.77 0 4.948 1.956 4.948 6.163V32z" fill="#000"/></g></symbol><symbol id="mail" viewBox="-2 -2 62.5 62.6"><g fill="none" fill-rule="evenodd"><ellipse stroke="#000" stroke-width="4" cx="29.23" cy="29.278" rx="29.23" ry="29.278"/><path d="M17.42 25.195c.37.242 1.485.96 3.344 2.155 1.86 1.195 3.284 2.115 4.274 2.76.11.07.34.224.693.46.354.238.648.43.882.576.234.146.516.31.848.49.332.183.644.32.938.41.294.09.566.135.816.135h.032c.25 0 .522-.044.816-.135.294-.09.607-.226.938-.408.332-.18.614-.345.848-.49.234-.147.527-.34.88-.576.354-.236.585-.39.694-.46 1-.645 3.545-2.284 7.634-4.915.794-.514 1.457-1.134 1.99-1.86.533-.726.8-1.487.8-2.284 0-.664-.26-1.234-.776-1.708s-1.128-.71-1.835-.71h-24.01c-.838 0-1.482.262-1.933.786-.45.524-.677 1.18-.677 1.966 0 .635.3 1.324.897 2.064.598.74 1.234 1.324 1.908 1.747zm24.794 1.618c-3.567 2.238-6.275 3.978-8.123 5.218-.62.424-1.122.754-1.508.99-.386.238-.9.48-1.54.727-.643.247-1.24.37-1.795.37h-.033c-.555 0-1.153-.123-1.795-.37-.642-.247-1.156-.49-1.542-.726-.386-.236-.89-.566-1.51-.99-1.467-.997-4.17-2.737-8.105-5.217-.62-.383-1.17-.82-1.648-1.315v12.007c0 .666.255 1.235.767 1.71.51.473 1.125.71 1.843.71h24.01c.718 0 1.332-.237 1.843-.71.512-.475.767-1.044.767-1.71V25.498c-.468.483-1.01.922-1.63 1.315z" fill="#000"/></g></symbol><symbol id="phone" viewBox="0 0 48 48"><g transform="translate(2 2)" fill="none" fill-rule="evenodd"><path d="M0 0h44v44H0z"/><circle stroke="#000" stroke-width="4" cx="22" cy="22" r="22"/><path d="M27.133 24.2c-1.466 1.467-1.466 2.933-2.933 2.933-1.467 0-2.933-1.466-4.4-2.933-1.467-1.467-2.933-2.933-2.933-4.4 0-1.467 1.466-1.467 2.933-2.933C21.267 15.4 16.867 11 15.4 11c-1.467 0-4.4 4.4-4.4 4.4 0 2.933 3.014 8.88 5.867 11.733C19.717 29.986 25.667 33 28.6 33c0 0 4.4-2.933 4.4-4.4 0-1.467-4.4-5.867-5.867-4.4" fill="#000"/></g></symbol><symbol id="twitter" viewBox="0 0 48 48"><g transform="translate(2 2)" fill="none" fill-rule="evenodd"><path d="M0 0h44v44H0z"/><circle stroke="#000" stroke-width="4" cx="22" cy="22" r="22"/><path d="M30.526 16.846c.89-.562 1.573-1.452 1.893-2.513-.834.52-1.755.898-2.737 1.102C28.9 14.55 27.78 14 26.54 14c-2.38 0-4.308 2.035-4.308 4.544 0 .356.036.703.11 1.034-3.58-.19-6.754-1.996-8.88-4.747-.37.674-.583 1.454-.583 2.286 0 1.576.76 2.967 1.916 3.783-.707-.024-1.37-.23-1.953-.57v.057c0 2.202 1.484 4.04 3.458 4.455-.362.107-.74.16-1.136.16-.277 0-.548-.027-.81-.08.548 1.804 2.14 3.12 4.025 3.155-1.477 1.22-3.334 1.944-5.352 1.944-.348 0-.69-.018-1.028-.06 1.907 1.287 4.17 2.04 6.604 2.04 7.926 0 12.257-6.924 12.257-12.93 0-.196 0-.393-.01-.586.842-.64 1.574-1.442 2.15-2.353-.773.362-1.604.607-2.474.716z" fill="#000"/></g></symbol></svg>