<?xml version="1.0" encoding="UTF-8" standalone="no"?>
<svg width="170px" height="48px" viewBox="0 0 170 48" version="1.1" xmlns="http://www.w3.org/2000/svg" xmlns:xlink="http://www.w3.org/1999/xlink">
    <defs></defs>
    <g id="Social-Media" stroke="none" stroke-width="1" fill="none" fill-rule="evenodd">
        <g id="phoneexpanded" transform="translate(2.000000, 2.000000)">
            <text id="413-579-7376" font-family="Ubuntu" font-size="15" font-weight="normal" fill="#000000">
                <tspan x="47" y="27.9975">413-579-7376</tspan>
            </text>
            <path d="M27.1333333,24.2 C25.6666667,25.6666667 25.6666667,27.1333333 24.2,27.1333333 C22.7333333,27.1333333 21.2666667,25.6666667 19.8,24.2 C18.3333333,22.7333333 16.8666667,21.2666667 16.8666667,19.8 C16.8666667,18.3333333 18.3333333,18.3333333 19.8,16.8666667 C21.2666667,15.4 16.8666667,11 15.4,11 C13.9333333,11 11,15.4 11,15.4 C11,18.3333333 14.014,24.2806667 16.8666667,27.1333333 C19.7178667,29.986 25.6666667,33 28.6,33 C28.6,33 33,30.0666667 33,28.6 C33,27.1333333 28.6,22.7333333 27.1333333,24.2" id="Shape" fill="#000000"></path>
            <path d="M145,43.9776773 C156.686134,43.4548863 166,33.8151281 166,22 C166,10.1848719 156.686134,0.54511369 145,0.0223226788 L145,0 L22,0 C9.8497355,0 0,9.8497355 0,22 C0,34.1502645 9.8497355,44 22,44 L145,44 L145,43.9776773 Z" id="Oval" stroke="#000000" stroke-width="4"></path>
        </g>
    </g>
</svg>